<svg aria-hidden="true" style="position: absolute; width: 0; height: 0; overflow: hidden;" version="1.1" xmlns="http://www.w3.org/2000/svg" xmlns:xlink="http://www.w3.org/1999/xlink">
<defs>
<symbol id="icon-icon-send" viewBox="0 0 15 15">
<path fill="#fff" style="fill: var(--color1, #fff)" d="M15 0l-15 8.438 4.794 1.775 7.394-6.931-5.624 7.587 0.004 0.001-0.006-0.001v4.131l2.688-3.136 3.406 1.261 2.343-13.125z"></path>
</symbol>
<symbol id="icon-check-white" viewBox="0 0 19 15">
<path fill="#fff" style="fill: var(--color1, #fff); stroke: var(--color1, #fff)" stroke="#fff" stroke-linejoin="miter" stroke-linecap="butt" stroke-miterlimit="4" stroke-width="0.3" d="M3.45 7.156l-0.096-0.091-0.096 0.090-1.337 1.267 0.105 0.101 4.944 4.715 0.096-0.091 10.511-10.027-0.105-0.1-1.319-1.258-0.096 0.091-9.087 8.661-3.521-3.359z"></path>
</symbol>
<symbol id="icon-tel" viewBox="0 0 15 15">
<path d="M12.853 9.775l-1.969-0.225c-0.054-0.007-0.117-0.011-0.181-0.011-0.426 0-0.812 0.173-1.091 0.452l-1.427 1.427c-2.211-1.141-3.969-2.899-5.079-5.046l-0.031-0.065 1.436-1.433c0.279-0.279 0.452-0.665 0.452-1.091 0-0.064-0.004-0.126-0.011-0.188l0.001 0.007-0.225-1.954c-0.093-0.776-0.748-1.371-1.541-1.371-0.001 0-0.001 0-0.002 0h-1.341c-0.876-0.002-1.605 0.726-1.551 1.602 0.411 6.621 5.707 11.91 12.321 12.321 0.875 0.054 1.605-0.675 1.605-1.551v-1.341c0-0.002 0-0.005 0-0.007 0-0.788-0.593-1.438-1.358-1.526l-0.007-0.001z"></path>
</symbol>
<symbol id="icon-email" viewBox="0 0 20 15">
<path d="M17.5 0h-15c-1.031 0-1.866 0.844-1.866 1.875l-0.009 11.25c0 1.031 0.844 1.875 1.875 1.875h15c1.031 0 1.875-0.844 1.875-1.875v-11.25c0-1.031-0.844-1.875-1.875-1.875zM17.125 3.985l-6.627 4.143c-0.141 0.088-0.313 0.141-0.497 0.141s-0.356-0.052-0.501-0.143l0.004 0.002-6.629-4.144c-0.236-0.141-0.392-0.395-0.392-0.686 0-0.44 0.356-0.796 0.796-0.796 0.164 0 0.316 0.049 0.442 0.134l-0.003-0.002 6.281 3.929 6.281-3.929c0.124-0.083 0.276-0.132 0.439-0.132 0.44 0 0.796 0.356 0.796 0.796 0 0.29-0.156 0.545-0.388 0.684l-0.004 0.002z"></path>
</symbol>
<symbol id="icon-cross" viewBox="0 0 15 15">
<path d="M15 1.511l-1.511-1.511-5.989 5.989-5.989-5.989-1.511 1.511 5.989 5.989-5.989 5.989 1.511 1.511 5.989-5.989 5.989 5.989 1.511-1.511-5.989-5.989 5.989-5.989z"></path>
</symbol>
<symbol id="icon-name" viewBox="0 0 15 15">
<path d="M7.5 7.5c2.071 0 3.75-1.679 3.75-3.75s-1.679-3.75-3.75-3.75v0c-2.071 0-3.75 1.679-3.75 3.75s1.679 3.75 3.75 3.75v0zM7.5 9.375c-2.502 0-7.5 1.256-7.5 3.75v0.938c0 0.515 0.423 0.938 0.938 0.938h13.125c0.515 0 0.938-0.423 0.938-0.938v-0.938c0-2.494-4.998-3.75-7.5-3.75z"></path>
</symbol>
</defs>
</svg>
